# Blender v2.79 (sub 0) OBJ File: ''
# www.blender.org
mtllib ground1.mtl
o RM场地总装
v 140.000015 -9.925053 75.000000
v 140.000015 -9.924947 -75.000000
v -140.000000 -9.925053 75.000000
v -140.000000 -9.924947 -75.000000
v 140.000015 9.974946 75.000000
v 140.000015 9.975053 -75.000000
v -140.000000 9.975053 -75.000000
v -140.000000 9.974946 75.000000
vt 0.881693 0.027801
vt 0.945589 0.027801
vt 0.881693 0.174797
vt 0.945589 0.174797
vt 0.915686 0.174797
vt 0.915686 0.253545
vt 0.907209 0.174797
vt 0.907209 0.253545
vt 0.971105 0.174797
vt 0.971105 0.027801
vt 0.979581 0.174797
vt 0.979581 0.027801
vt 0.898732 0.253545
vt 0.898732 0.174797
vt 0.907209 0.253545
vt 0.907209 0.174797
vt 0.971105 0.027801
vt 0.971105 0.174797
vt 0.962628 0.027801
vt 0.962628 0.174797
vn 0.0000 1.0000 0.0000
vn 1.0000 0.0000 0.0000
vn 0.0000 0.0000 -1.0000
vn -1.0000 0.0000 0.0000
vn 0.0000 0.0000 1.0000
usemtl None
s 1
f 1/1/1 2/2/1 3/3/1
f 3/3/1 2/2/1 4/4/1
f 7/5/2 8/6/2 4/7/2
f 4/7/2 8/6/2 3/8/2
f 8/9/3 5/10/3 3/11/3
f 3/11/3 5/10/3 1/12/3
f 5/13/4 6/14/4 1/15/4
f 1/15/4 6/14/4 2/16/4
f 6/17/5 7/18/5 2/19/5
f 2/19/5 7/18/5 4/20/5
